<?xml version="1.0" encoding="UTF-8" standalone="no"?><!DOCTYPE svg PUBLIC "-//W3C//DTD SVG 1.1//EN" "http://www.w3.org/Graphics/SVG/1.1/DTD/svg11.dtd"><svg width="100%" height="100%" viewBox="0 0 1080 1080" version="1.1" xmlns="http://www.w3.org/2000/svg" xmlns:xlink="http://www.w3.org/1999/xlink" xml:space="preserve" xmlns:serif="http://www.serif.com/" style="fill-rule:evenodd;clip-rule:evenodd;stroke-linejoin:round;stroke-miterlimit:2;"><path d="M540,1l89.1,405.821c2.369,10.79 7.779,20.676 15.591,28.488c7.812,7.812 17.697,13.222 28.488,15.591l405.821,89.1l-405.821,89.1c-10.79,2.369 -20.676,7.779 -28.488,15.591c-7.812,7.812 -13.222,17.697 -15.591,28.488l-89.1,405.821l-89.1,-405.821c-2.369,-10.79 -7.779,-20.676 -15.591,-28.488c-7.812,-7.812 -17.697,-13.222 -28.488,-15.591l-405.821,-89.1l405.821,-89.1c10.79,-2.369 20.676,-7.779 28.488,-15.591c7.812,-7.812 13.222,-17.697 15.591,-28.488l89.1,-405.821Z" style="fill:#fff;"/></svg>